<svg width="18" height="15" viewBox="0 0 18 15" fill="none" xmlns="http://www.w3.org/2000/svg">
<path d="M10.2374 14.0576L10.2375 14.0576L10.2405 14.0607C10.4532 14.2771 10.8008 14.2825 11.0258 14.063C11.1585 13.9292 11.2161 13.7399 11.1781 13.547C11.178 13.5464 11.1779 13.5459 11.1778 13.5453L10.4661 10.1142L10.3257 9.4375H11.0168H15.2543C16.4622 9.4375 17.2783 8.20125 16.8 7.08689L16.7998 7.0865L14.3548 1.379L14.3548 1.379L14.3541 1.37737C14.2096 1.03705 13.873 0.8125 13.4993 0.8125H6.75684C6.2425 0.8125 5.81934 1.23566 5.81934 1.75V9.2425C5.81934 9.49273 5.91893 9.73159 6.08959 9.90225L6.08995 9.90261L10.2374 14.0576ZM3.18684 1.75C3.18684 1.23566 2.76368 0.8125 2.24934 0.8125C1.735 0.8125 1.31184 1.23566 1.31184 1.75V7.75C1.31184 8.26434 1.735 8.6875 2.24934 8.6875C2.76368 8.6875 3.18684 8.26434 3.18684 7.75V1.75Z" stroke="#131313" stroke-width="1.125"/>
</svg>
