<svg width="18" height="15" viewBox="0 0 18 15" fill="none" xmlns="http://www.w3.org/2000/svg">
<path d="M10.2377 0.941504L10.2378 0.941518L10.2411 0.938089C10.4539 0.721653 10.8014 0.716271 11.0265 0.935713C11.1592 1.06955 11.2168 1.25882 11.1788 1.45176C11.1786 1.45232 11.1785 1.45288 11.1784 1.45344L10.4667 4.88451L10.3264 5.56126H11.0175H15.255C16.4623 5.56126 17.2803 6.79772 16.8074 7.91351C16.8073 7.9137 16.8073 7.91388 16.8072 7.91407L14.3648 13.6154C14.3645 13.6161 14.3643 13.6167 14.364 13.6173C14.2116 13.963 13.8718 14.1863 13.5 14.1863H6.75C6.23566 14.1863 5.8125 13.7631 5.8125 13.2488V5.75626C5.8125 5.50602 5.91208 5.26717 6.08275 5.0965L10.2377 0.941504ZM3.1875 13.2488C3.1875 13.7631 2.76434 14.1863 2.25 14.1863C1.73566 14.1863 1.3125 13.7631 1.3125 13.2488V7.24876C1.3125 6.73442 1.73566 6.31126 2.25 6.31126C2.76434 6.31126 3.1875 6.73442 3.1875 7.24876V13.2488Z" stroke="#131313" stroke-width="1.125"/>
</svg>
