<svg width="20" height="20" viewBox="0 0 20 20" fill="none" xmlns="http://www.w3.org/2000/svg">
<path d="M10 20C15.5228 20 20 15.5228 20 10C20 4.47715 15.5228 0 10 0C4.47715 0 0 4.47715 0 10C0 15.5228 4.47715 20 10 20Z" fill="#757575"/>
<path d="M9.98809 15.4688C9.09981 15.4688 8.21165 15.4688 7.32363 15.4688C6.10566 15.4688 5.22676 14.593 5.22051 13.3754C5.21816 12.9504 5.21816 12.5253 5.22051 12.1C5.22285 11.6617 5.48848 11.3797 5.89473 11.3789C6.30098 11.3781 6.57012 11.6582 6.57285 12.0961C6.57559 12.534 6.57285 12.9617 6.57285 13.3945C6.57598 13.8484 6.84277 14.1129 7.29824 14.1133C9.09746 14.1133 10.8965 14.1133 12.6955 14.1133C13.1514 14.1133 13.4186 13.8484 13.4221 13.3949C13.4252 12.9621 13.4221 12.5293 13.4221 12.0965C13.4221 11.6637 13.692 11.3781 14.0998 11.3789C14.5076 11.3797 14.7771 11.6617 14.7736 12.0996C14.7693 12.6531 14.8002 13.2125 14.7307 13.7586C14.6033 14.7578 13.7514 15.4633 12.7404 15.468C11.8252 15.4707 10.9064 15.4688 9.98809 15.4688Z" fill="white"/>
<path d="M9.32247 6.86445C9.21934 6.96055 9.15879 7.01328 9.10254 7.06992C8.66973 7.50703 8.23926 7.94687 7.8045 8.38242C7.4959 8.6918 7.06583 8.71445 6.78692 8.44375C6.50801 8.17305 6.51895 7.72891 6.82247 7.42344C7.70606 6.53437 8.59252 5.64844 9.48184 4.76562C9.79434 4.45312 10.2029 4.45312 10.5154 4.76562C11.4107 5.65365 12.3024 6.54544 13.1904 7.44102C13.4826 7.73594 13.4842 8.1793 13.2127 8.44414C12.9412 8.70898 12.5096 8.69727 12.2115 8.40156C11.7701 7.96211 11.3354 7.51562 10.8971 7.07344C10.8404 7.01641 10.7799 6.96328 10.6897 6.87813C10.6838 7.00078 10.6768 7.08008 10.6768 7.15937C10.6768 8.55742 10.6787 9.95508 10.6768 11.3531C10.6768 11.8777 10.215 12.1898 9.73497 12.0031C9.46934 11.8996 9.3252 11.6691 9.3252 11.3316C9.32364 9.94883 9.32364 8.56615 9.3252 7.18359L9.32247 6.86445Z" fill="white"/>
</svg>
