<svg width="30" height="29" viewBox="0 0 30 29" fill="none" xmlns="http://www.w3.org/2000/svg">
<path d="M15.513 22.8719L15.001 22.5659L14.4885 22.871L7.21369 27.2018L7.2119 27.2028C6.61377 27.5606 5.94534 27.0217 6.08661 26.4197C6.08663 26.4196 6.08664 26.4195 6.08666 26.4195C6.08668 26.4194 6.0867 26.4193 6.08672 26.4192L8.01486 18.2432L8.15469 17.6503L7.69198 17.2541L1.25861 11.7453L1.25826 11.745C0.771933 11.329 1.01595 10.5229 1.68576 10.4703L1.68576 10.4703L1.69098 10.4699L10.1578 9.75961L10.7559 9.70943L10.9929 9.15797L14.306 1.44919L14.306 1.44919L14.3077 1.44528C14.5588 0.854177 15.4412 0.854177 15.6923 1.44528L15.6937 1.44844L19.0068 9.17454L19.2435 9.72671L19.8422 9.77693L28.309 10.4872L28.3142 10.4876C28.984 10.5403 29.2281 11.3463 28.7417 11.7623L28.7414 11.7626L22.308 17.2714L21.8453 17.6676L21.9851 18.2605L23.9133 26.4365C24.055 27.0387 23.3864 27.578 22.7881 27.2202L22.7878 27.22L15.513 22.8719Z" stroke="#131313" stroke-width="2"/>
</svg>
